<?xml version="1.0" encoding="UTF-8" standalone="no"?><!DOCTYPE svg PUBLIC "-//W3C//DTD SVG 1.1//EN" "http://www.w3.org/Graphics/SVG/1.1/DTD/svg11.dtd"><svg width="100%" height="100%" viewBox="0 0 503 86" version="1.1" xmlns="http://www.w3.org/2000/svg" xmlns:xlink="http://www.w3.org/1999/xlink" xml:space="preserve" xmlns:serif="http://www.serif.com/" style="fill-rule:evenodd;clip-rule:evenodd;stroke-linejoin:round;stroke-miterlimit:2;"><rect id="Artboard1" x="0" y="0" width="502.241" height="85.827" style="fill:none;"/><clipPath id="_clip1"><rect x="0" y="0" width="502.241" height="85.827"/></clipPath><g clip-path="url(#_clip1)"><text x="113.877px" y="84.508px" style="font-family:'Magra-Bold', 'Magra';font-weight:600;font-size:109.894px;fill:#4b5562;">sandbox</text><rect x="0" y="0" width="85.827" height="85.827" style="fill:#f7df1e;fill-rule:nonzero;"/><path d="M22.567,71.723l6.568,-3.975c1.267,2.247 2.42,4.148 5.185,4.148c2.65,0 4.321,-1.037 4.321,-5.069l0,-27.424l8.066,0l0,27.538c0,8.353 -4.897,12.156 -12.042,12.156c-6.452,0 -10.197,-3.342 -12.098,-7.375m28.52,-0.863l6.568,-3.802c1.728,2.823 3.975,4.897 7.95,4.897c3.342,0 5.473,-1.671 5.473,-3.976c0,-2.765 -2.189,-3.745 -5.876,-5.357l-2.016,-0.865c-5.819,-2.477 -9.679,-5.588 -9.679,-12.156c0,-6.049 4.609,-10.658 11.811,-10.658c5.127,0 8.814,1.786 11.464,6.452l-6.28,4.034c-1.383,-2.478 -2.88,-3.457 -5.185,-3.457c-2.362,0 -3.86,1.498 -3.86,3.457c0,2.419 1.498,3.399 4.955,4.897l2.016,0.864c6.856,2.939 10.716,5.934 10.716,12.674c0,7.26 -5.704,11.235 -13.366,11.235c-7.49,0 -12.329,-3.572 -14.691,-8.239" style="fill-rule:nonzero;"/></g></svg>