<?xml version="1.0" encoding="UTF-8" standalone="no"?><!DOCTYPE svg PUBLIC "-//W3C//DTD SVG 1.1//EN" "http://www.w3.org/Graphics/SVG/1.1/DTD/svg11.dtd"><svg width="100%" height="100%" viewBox="0 0 503 86" version="1.1" xmlns="http://www.w3.org/2000/svg" xmlns:xlink="http://www.w3.org/1999/xlink" xml:space="preserve" xmlns:serif="http://www.serif.com/" style="fill-rule:evenodd;clip-rule:evenodd;stroke-linejoin:round;stroke-miterlimit:2;"><rect id="Artboard1" x="0" y="0" width="502.241" height="85.827" style="fill:none;"/><clipPath id="_clip1"><rect x="0" y="0" width="502.241" height="85.827"/></clipPath><g clip-path="url(#_clip1)"><path d="M117.064,42.529c0,-5.348 2.125,-9.671 6.374,-12.968c4.249,-3.296 9.597,-4.945 16.044,-4.945c6.447,0 11.466,1.484 15.056,4.451c3.59,2.967 5.678,7.125 6.264,12.473l-14.726,2.857c-0.513,-4.982 -2.967,-7.473 -7.363,-7.473c-1.612,0 -2.93,0.476 -3.956,1.429c-1.026,0.952 -1.539,1.978 -1.539,3.077c0,1.099 0.129,1.941 0.385,2.527c0.257,0.587 0.659,1.136 1.209,1.649c0.549,0.513 1.099,0.971 1.648,1.373c0.55,0.403 1.319,0.825 2.308,1.264c0.989,0.44 1.85,0.806 2.583,1.099c1.025,0.586 3.37,1.63 7.033,3.132c3.663,1.502 6.74,3.425 9.231,5.77c2.491,2.344 3.736,5.751 3.736,10.22c0,4.469 -2.033,8.48 -6.099,12.033c-4.066,3.553 -9.799,5.33 -17.198,5.33c-7.4,0 -14.799,-2.161 -22.199,-6.484l6.044,-10.879c7.327,3.15 12.711,4.725 16.155,4.725c1.685,0 3.095,-0.366 4.231,-1.099c1.135,-0.732 1.703,-1.831 1.703,-3.297c0,-1.538 -0.806,-2.784 -2.418,-3.736c-1.685,-1.026 -2.967,-1.722 -3.846,-2.088c-6.96,-2.711 -12.235,-5.531 -15.825,-8.462c-3.223,-2.637 -4.835,-6.63 -4.835,-11.978Z" style="fill:#4b5562;fill-rule:nonzero;"/><path d="M194.759,44.507c0,-2.418 -0.513,-4.194 -1.539,-5.33c-1.025,-1.136 -3.003,-1.703 -5.934,-1.703c-2.93,0 -7.766,1.062 -14.506,3.187l-4.725,-10.33c2.491,-1.392 5.952,-2.693 10.385,-3.902c4.432,-1.208 8.791,-1.813 13.077,-1.813c4.286,0 7.876,0.513 10.77,1.539c2.893,1.025 4.981,2.546 6.263,4.56c1.283,2.015 2.125,4.011 2.528,5.989c0.403,1.979 0.604,4.469 0.604,7.473l0,20.66c0,2.711 0.275,4.909 0.825,6.594c0.549,1.685 1.74,3.516 3.571,5.494l-9.561,8.902c-1.685,-0.806 -3.315,-2.015 -4.89,-3.627c-1.575,-1.611 -2.729,-3.113 -3.461,-4.505l-0.44,0c-4.249,5.421 -9.634,8.132 -16.154,8.132c-10.55,0 -15.825,-5.458 -15.825,-16.374c0,-5.788 1.667,-10.111 5,-12.968c3.334,-2.857 8.151,-4.835 14.451,-5.934l9.561,-1.648l0,-4.396Zm-13.078,23.187c0,3.59 1.905,5.385 5.715,5.385c2.93,0 5.421,-1.025 7.473,-3.077l0,-10.33c-4.689,0.66 -8.059,1.557 -10.11,2.693c-2.052,1.135 -3.078,2.912 -3.078,5.329Z" style="fill:#4b5562;fill-rule:nonzero;"/><path d="M252.563,24.616c5.494,0 9.744,1.612 12.747,4.835c3.004,3.224 4.506,7.73 4.506,13.517l0,41.54l-16.924,0l0,-39.671c0,-4.762 -2.271,-7.144 -6.813,-7.144c-2.637,0 -4.945,1.063 -6.923,3.187l0,43.628l-16.814,0l0,-41.54l-1.209,-16.154l13.078,-1.648l1.538,6.593l0.55,0c3.956,-4.762 9.377,-7.143 16.264,-7.143Z" style="fill:#4b5562;fill-rule:nonzero;"/><path d="M286.19,31.1c2.418,-2.271 4.872,-3.92 7.363,-4.945c2.491,-1.026 5.623,-1.539 9.396,-1.539c3.773,0 6.905,0.769 9.396,2.308l0.33,-0.33l-1.649,-2.967l0,-21.759l16.814,-1.868l0,67.145l1.209,16.374l-13.078,1.648l-1.538,-6.923l-0.44,0c-4.102,5.055 -9.048,7.583 -14.835,7.583c-14.067,0 -21.1,-9.781 -21.1,-29.342c0,-5.934 0.751,-11.099 2.253,-15.495c1.502,-4.395 3.462,-7.692 5.879,-9.89Zm24.836,8.352c-1.758,-1.172 -3.48,-1.759 -5.165,-1.759c-1.685,0 -2.967,0.165 -3.846,0.495c-0.879,0.33 -1.832,1.044 -2.857,2.143c-2.125,2.271 -3.187,7.088 -3.187,14.451c0,7.363 0.622,12.198 1.868,14.506c1.245,2.308 3.315,3.462 6.209,3.462c2.894,0 5.22,-1.099 6.978,-3.297l0,-30.001Z" style="fill:#4b5562;fill-rule:nonzero;"/><path d="M381.028,30.221c4.689,4.395 7.034,12.271 7.034,23.627c0,5.934 -0.77,11.081 -2.308,15.44c-1.539,4.359 -3.627,7.674 -6.264,9.945c-4.982,4.396 -10.843,6.594 -17.583,6.594c-8.938,0 -16.814,-2.528 -23.627,-7.583l0,-76.376l16.813,-1.868l0,24.067l-1.538,4.066l0.44,0.329c3.077,-2.564 7.344,-3.846 12.802,-3.846c5.458,0 10.202,1.868 14.231,5.605Zm-25.935,40.66c1.685,1.246 3.444,1.869 5.275,1.869c1.832,0 3.169,-0.147 4.011,-0.44c0.843,-0.293 1.74,-0.989 2.693,-2.088c2.051,-2.125 3.077,-6.868 3.077,-14.231c0,-7.363 -0.678,-12.253 -2.033,-14.671c-1.356,-2.418 -3.462,-3.627 -6.319,-3.627c-2.857,0 -5.092,0.99 -6.704,2.968l0,30.22Z" style="fill:#4b5562;fill-rule:nonzero;"/><path d="M421.689,24.616c4.029,0 7.546,0.623 10.55,1.868c3.003,1.246 5.366,2.839 7.088,4.781c1.722,1.941 3.095,4.34 4.121,7.198c1.685,4.689 2.527,10.44 2.527,17.253c0,10.477 -2.93,18.425 -8.791,23.847c-4.469,4.176 -10.623,6.264 -18.462,6.264c-4.03,0 -7.546,-0.623 -10.55,-1.868c-3.004,-1.246 -5.366,-2.839 -7.088,-4.781c-1.722,-1.941 -3.132,-4.341 -4.231,-7.198c-1.685,-4.542 -2.528,-10.293 -2.528,-17.253c0,-6.447 1.283,-12.125 3.847,-17.034c4.469,-8.718 12.308,-13.077 23.517,-13.077Zm6.374,30.88c0,-6.667 -0.513,-11.3 -1.539,-13.901c-1.025,-2.601 -3.205,-3.902 -6.538,-3.902c-3.334,0 -5.458,1.246 -6.374,3.737c-0.916,2.491 -1.374,7.033 -1.374,13.627c0,6.593 0.513,11.19 1.539,13.791c1.025,2.601 3.223,3.902 6.593,3.902c3.37,0 5.495,-1.228 6.374,-3.682c0.879,-2.454 1.319,-6.978 1.319,-13.572Z" style="fill:#4b5562;fill-rule:nonzero;"/><path d="M484.768,25.056l15.055,1.648l-16.044,26.704l18.462,30.111l-16.154,1.648l-10.88,-20.11l-0.659,0l-10.33,20.11l-15.605,-1.648l17.803,-30.001l-16.594,-26.704l16.374,-1.648l8.791,16.703l0.77,0l9.011,-16.813Z" style="fill:#4b5562;fill-rule:nonzero;"/><rect x="0" y="0" width="85.827" height="85.827" style="fill:#f7df1e;fill-rule:nonzero;"/><path d="M22.567,71.723l6.568,-3.975c1.267,2.247 2.42,4.148 5.185,4.148c2.65,0 4.321,-1.037 4.321,-5.069l0,-27.424l8.066,0l0,27.538c0,8.353 -4.897,12.156 -12.042,12.156c-6.452,0 -10.197,-3.342 -12.098,-7.375m28.52,-0.863l6.568,-3.802c1.728,2.823 3.975,4.897 7.95,4.897c3.342,0 5.473,-1.671 5.473,-3.976c0,-2.765 -2.189,-3.745 -5.876,-5.357l-2.016,-0.865c-5.819,-2.477 -9.679,-5.588 -9.679,-12.156c0,-6.049 4.609,-10.658 11.811,-10.658c5.127,0 8.814,1.786 11.464,6.452l-6.28,4.034c-1.383,-2.478 -2.88,-3.457 -5.185,-3.457c-2.362,0 -3.86,1.498 -3.86,3.457c0,2.419 1.498,3.399 4.955,4.897l2.016,0.864c6.856,2.939 10.716,5.934 10.716,12.674c0,7.26 -5.704,11.235 -13.366,11.235c-7.49,0 -12.329,-3.572 -14.691,-8.239" style="fill-rule:nonzero;"/></g></svg>